<?xml version="1.0" standalone="no"?><!DOCTYPE svg PUBLIC "-//W3C//DTD SVG 1.1//EN" "http://www.w3.org/Graphics/SVG/1.1/DTD/svg11.dtd"><svg t="1736837723142" class="icon" viewBox="0 0 1024 1024" version="1.1" xmlns="http://www.w3.org/2000/svg" p-id="9277" xmlns:xlink="http://www.w3.org/1999/xlink" width="128" height="128"><path d="M1009.982444 943.295612l-224.895297-221.311308a434.366643 434.366643 0 0 0-25.535921-593.662145A445.438608 445.438608 0 0 0 445.056209 0.00256c-118.719629 0-230.39928 45.567858-314.431017 128.255599C46.401455 211.1379 0.0016 321.473555 0.0016 438.785189s46.399855 227.647289 130.623592 310.527029a445.502608 445.502608 0 0 0 314.431017 128.2556 443.518614 443.518614 0 0 0 271.359152-90.943716l227.39129 223.8073a46.783854 46.783854 0 0 0 33.087896 13.567958 47.167853 47.167853 0 0 0 33.087897-80.703748z m-214.143331-504.510423a339.19894 339.19894 0 0 1-102.46368 243.327239c-66.303793 65.215796-154.495517 101.183684-248.319224 101.183684s-182.015431-35.903888-248.319224-101.183684a339.19894 339.19894 0 0 1-102.46368-243.327239 339.19894 339.19894 0 0 1 102.46368-243.32724c66.303793-65.215796 154.495517-101.183684 248.319224-101.183684s182.015431 35.903888 248.319224 101.183684a339.006941 339.006941 0 0 1 102.46368 243.32724z" fill="" p-id="9278"></path></svg>